# xmcd CD database file
#
# Track frame offsets:
#	150
#	16325
#	30922
#	42732
#	56387
#	69777
#	84462
#	97750
#	112092
#	126747
#	141210
#	155482
#	170050
#	182150
#	195425
#	207560
#	220715
#	251115
#	272497
#	314775
#
# Disc length: 4531 seconds
#
# Revision: 16
# Processed by: cddbd v1.5.2PL0 Copyright (c) Steve Scherf et al.
# Submitted via: CDex 1.70beta2
#
DISCID=2611b114
DTITLE=Various Artist - Best Of Ken Burns Jazz
DYEAR=2000
DGENRE=Jazz
TTITLE0=Louis Armstrong And His Orchestra - Star Dust
TTITLE1=Jelly Roll Morton's Red Hot Peppers - Dead Man Blues
TTITLE2=Noble Sissle And His Orchestra Featuring Sidney Bechet - Dear Old Southland
TTITLE3=Frankie Trumbauer And His Orchestra Featuring Bix Beiderbecke - Singin' The Blues (Till My Daddy Comes Home)
TTITLE4=Louis Armstrong And His Orchestra - St. Louis Blues
TTITLE5=Duke Ellington And His Orchestra - The Mooche
TTITLE6=Fletcher Henderson And His Orchestra - Hotter Than 'Ell
TTITLE7=Benny Goodman And His Orchestra - King Porter Stomp
TTITLE8=Artie Shaw And His Orchestra - Begin The Beguine
TTITLE9=Duke Ellington And His Orchestra - Cotton Tail
TTITLE10=Count Basie And His Orchestra - Jumpin' At The Woodside
TTITLE11=Billie Holiday With Eddie Heywood And His Orchestra - Solitude
TTITLE12=Dizzy Gillespie Sextet Featuring Charlie Parker - Groovin' High
TTITLE13=Thelonious Monk - Straight No Chaser
TTITLE14=Sarah Vaughan And Her Trio - They Can't Take That Away From Me
TTITLE15=Dave Brubeck Quartet - Take Five (45-RPM Version)
TTITLE16=Horace Silver And The Jazz Messengers - Doodlin'
TTITLE17=John Coltrane Quartet - Giant Steps
TTITLE18=Miles Davis Sextet - So What
TTITLE19=Lincoln Center Jazz Orchestra - Take The A Train
EXTD=YEAR: 2000
EXTT0=
EXTT1=
EXTT2=
EXTT3=
EXTT4=
EXTT5=
EXTT6=
EXTT7=
EXTT8=
EXTT9=
EXTT10=
EXTT11=
EXTT12=
EXTT13=
EXTT14=
EXTT15=
EXTT16=
EXTT17=
EXTT18=
EXTT19=
PLAYORDER=
